<mxfile host="app.diagrams.net" modified="2020-11-10T01:59:54.910Z" agent="5.0 (Windows NT 10.0; WOW64) AppleWebKit/537.36 (KHTML, like Gecko) Chrome/72.0.3626.121 Safari/537.36" etag="wj7h4HJTc_5NWBV_vVkq" version="13.8.5" type="github">
  <diagram id="fUlSVY1tBTceYShjnSN3" name="第 1 页">
    <mxGraphModel dx="2500" dy="2065" grid="1" gridSize="10" guides="1" tooltips="1" connect="1" arrows="1" fold="1" page="1" pageScale="1" pageWidth="827" pageHeight="1169" math="0" shadow="0">
      <root>
        <mxCell id="0" />
        <mxCell id="1" parent="0" />
        <mxCell id="FoiQt1KAuYYiKZtzM87P-15" value="" style="group" vertex="1" connectable="0" parent="1">
          <mxGeometry x="560" y="186" width="158" height="176" as="geometry" />
        </mxCell>
        <mxCell id="FoiQt1KAuYYiKZtzM87P-13" value="" style="rounded=0;whiteSpace=wrap;html=1;" vertex="1" parent="FoiQt1KAuYYiKZtzM87P-15">
          <mxGeometry width="158" height="176" as="geometry" />
        </mxCell>
        <mxCell id="FoiQt1KAuYYiKZtzM87P-8" value="成长值服务" style="rounded=0;whiteSpace=wrap;html=1;" vertex="1" parent="FoiQt1KAuYYiKZtzM87P-15">
          <mxGeometry x="18" y="44" width="120" height="22" as="geometry" />
        </mxCell>
        <mxCell id="FoiQt1KAuYYiKZtzM87P-9" value="积分服务" style="rounded=0;whiteSpace=wrap;html=1;" vertex="1" parent="FoiQt1KAuYYiKZtzM87P-15">
          <mxGeometry x="18" y="77" width="120" height="22" as="geometry" />
        </mxCell>
        <mxCell id="FoiQt1KAuYYiKZtzM87P-10" value="礼包服务" style="rounded=0;whiteSpace=wrap;html=1;" vertex="1" parent="FoiQt1KAuYYiKZtzM87P-15">
          <mxGeometry x="18" y="110" width="120" height="22" as="geometry" />
        </mxCell>
        <mxCell id="FoiQt1KAuYYiKZtzM87P-11" value="资源奖励服务" style="text;html=1;strokeColor=none;fillColor=none;align=center;verticalAlign=middle;whiteSpace=wrap;rounded=0;" vertex="1" parent="FoiQt1KAuYYiKZtzM87P-15">
          <mxGeometry x="36.5" y="14.666666666666668" width="83" height="14.666666666666668" as="geometry" />
        </mxCell>
        <mxCell id="FoiQt1KAuYYiKZtzM87P-14" value="..." style="rounded=0;whiteSpace=wrap;html=1;" vertex="1" parent="FoiQt1KAuYYiKZtzM87P-15">
          <mxGeometry x="19" y="144.46666666666667" width="120" height="22" as="geometry" />
        </mxCell>
        <mxCell id="FoiQt1KAuYYiKZtzM87P-73" value="" style="group" vertex="1" connectable="0" parent="FoiQt1KAuYYiKZtzM87P-15">
          <mxGeometry width="158" height="176" as="geometry" />
        </mxCell>
        <mxCell id="FoiQt1KAuYYiKZtzM87P-74" value="" style="rounded=0;whiteSpace=wrap;html=1;" vertex="1" parent="FoiQt1KAuYYiKZtzM87P-73">
          <mxGeometry width="158" height="176" as="geometry" />
        </mxCell>
        <mxCell id="FoiQt1KAuYYiKZtzM87P-75" value="成长值服务" style="rounded=0;whiteSpace=wrap;html=1;" vertex="1" parent="FoiQt1KAuYYiKZtzM87P-73">
          <mxGeometry x="18" y="44" width="120" height="22" as="geometry" />
        </mxCell>
        <mxCell id="FoiQt1KAuYYiKZtzM87P-76" value="积分服务" style="rounded=0;whiteSpace=wrap;html=1;" vertex="1" parent="FoiQt1KAuYYiKZtzM87P-73">
          <mxGeometry x="18" y="77" width="120" height="22" as="geometry" />
        </mxCell>
        <mxCell id="FoiQt1KAuYYiKZtzM87P-77" value="礼包服务" style="rounded=0;whiteSpace=wrap;html=1;" vertex="1" parent="FoiQt1KAuYYiKZtzM87P-73">
          <mxGeometry x="18" y="110" width="120" height="22" as="geometry" />
        </mxCell>
        <mxCell id="FoiQt1KAuYYiKZtzM87P-78" value="资源奖励服务" style="text;html=1;strokeColor=none;fillColor=none;align=center;verticalAlign=middle;whiteSpace=wrap;rounded=0;" vertex="1" parent="FoiQt1KAuYYiKZtzM87P-73">
          <mxGeometry x="36.5" y="14.666666666666668" width="83" height="14.666666666666668" as="geometry" />
        </mxCell>
        <mxCell id="FoiQt1KAuYYiKZtzM87P-79" value="..." style="rounded=0;whiteSpace=wrap;html=1;" vertex="1" parent="FoiQt1KAuYYiKZtzM87P-73">
          <mxGeometry x="19" y="144.46666666666667" width="120" height="22" as="geometry" />
        </mxCell>
        <mxCell id="FoiQt1KAuYYiKZtzM87P-80" value="" style="group" vertex="1" connectable="0" parent="FoiQt1KAuYYiKZtzM87P-73">
          <mxGeometry width="158" height="176" as="geometry" />
        </mxCell>
        <mxCell id="FoiQt1KAuYYiKZtzM87P-81" value="" style="rounded=0;whiteSpace=wrap;html=1;" vertex="1" parent="FoiQt1KAuYYiKZtzM87P-80">
          <mxGeometry width="158" height="176" as="geometry" />
        </mxCell>
        <mxCell id="FoiQt1KAuYYiKZtzM87P-82" value="成长值服务" style="rounded=0;whiteSpace=wrap;html=1;" vertex="1" parent="FoiQt1KAuYYiKZtzM87P-80">
          <mxGeometry x="18" y="44" width="120" height="22" as="geometry" />
        </mxCell>
        <mxCell id="FoiQt1KAuYYiKZtzM87P-83" value="积分服务" style="rounded=0;whiteSpace=wrap;html=1;" vertex="1" parent="FoiQt1KAuYYiKZtzM87P-80">
          <mxGeometry x="18" y="77" width="120" height="22" as="geometry" />
        </mxCell>
        <mxCell id="FoiQt1KAuYYiKZtzM87P-84" value="礼包服务" style="rounded=0;whiteSpace=wrap;html=1;" vertex="1" parent="FoiQt1KAuYYiKZtzM87P-80">
          <mxGeometry x="18" y="110" width="120" height="22" as="geometry" />
        </mxCell>
        <mxCell id="FoiQt1KAuYYiKZtzM87P-85" value="资源奖励服务" style="text;html=1;strokeColor=none;fillColor=none;align=center;verticalAlign=middle;whiteSpace=wrap;rounded=0;" vertex="1" parent="FoiQt1KAuYYiKZtzM87P-80">
          <mxGeometry x="36.5" y="14.666666666666668" width="83" height="14.666666666666668" as="geometry" />
        </mxCell>
        <mxCell id="FoiQt1KAuYYiKZtzM87P-86" value="..." style="rounded=0;whiteSpace=wrap;html=1;" vertex="1" parent="FoiQt1KAuYYiKZtzM87P-80">
          <mxGeometry x="19" y="144.46666666666667" width="120" height="22" as="geometry" />
        </mxCell>
        <mxCell id="FoiQt1KAuYYiKZtzM87P-22" value="" style="group" vertex="1" connectable="0" parent="1">
          <mxGeometry x="560" y="-23" width="158" height="190" as="geometry" />
        </mxCell>
        <mxCell id="FoiQt1KAuYYiKZtzM87P-23" value="" style="rounded=0;whiteSpace=wrap;html=1;" vertex="1" parent="FoiQt1KAuYYiKZtzM87P-22">
          <mxGeometry width="158" height="190" as="geometry" />
        </mxCell>
        <mxCell id="FoiQt1KAuYYiKZtzM87P-24" value="推荐服务" style="rounded=0;whiteSpace=wrap;html=1;" vertex="1" parent="FoiQt1KAuYYiKZtzM87P-22">
          <mxGeometry x="18" y="47.5" width="120" height="23.75" as="geometry" />
        </mxCell>
        <mxCell id="FoiQt1KAuYYiKZtzM87P-25" value="骡马ABtest" style="rounded=0;whiteSpace=wrap;html=1;" vertex="1" parent="FoiQt1KAuYYiKZtzM87P-22">
          <mxGeometry x="18" y="83.125" width="120" height="23.75" as="geometry" />
        </mxCell>
        <mxCell id="FoiQt1KAuYYiKZtzM87P-26" value="用户白名单/手机型号" style="rounded=0;whiteSpace=wrap;html=1;" vertex="1" parent="FoiQt1KAuYYiKZtzM87P-22">
          <mxGeometry x="18" y="118.75" width="120" height="23.75" as="geometry" />
        </mxCell>
        <mxCell id="FoiQt1KAuYYiKZtzM87P-27" value="任务下发策略" style="text;html=1;strokeColor=none;fillColor=none;align=center;verticalAlign=middle;whiteSpace=wrap;rounded=0;" vertex="1" parent="FoiQt1KAuYYiKZtzM87P-22">
          <mxGeometry x="36.5" y="15.833333333333334" width="83" height="15.833333333333334" as="geometry" />
        </mxCell>
        <mxCell id="FoiQt1KAuYYiKZtzM87P-28" value="..." style="rounded=0;whiteSpace=wrap;html=1;" vertex="1" parent="FoiQt1KAuYYiKZtzM87P-22">
          <mxGeometry x="19" y="155.95833333333334" width="120" height="23.75" as="geometry" />
        </mxCell>
        <mxCell id="FoiQt1KAuYYiKZtzM87P-20" value="" style="rounded=0;whiteSpace=wrap;html=1;fontSize=13;strokeColor=#666666;fontColor=#333333;fillColor=#DEDEDE;" vertex="1" parent="1">
          <mxGeometry x="206.48" y="-20" width="283.52" height="460" as="geometry" />
        </mxCell>
        <mxCell id="FoiQt1KAuYYiKZtzM87P-33" style="edgeStyle=orthogonalEdgeStyle;rounded=0;orthogonalLoop=1;jettySize=auto;html=1;exitX=0.5;exitY=0;exitDx=0;exitDy=0;entryX=0.5;entryY=1;entryDx=0;entryDy=0;fontSize=13;" edge="1" parent="1" source="FoiQt1KAuYYiKZtzM87P-2" target="FoiQt1KAuYYiKZtzM87P-32">
          <mxGeometry relative="1" as="geometry" />
        </mxCell>
        <mxCell id="FoiQt1KAuYYiKZtzM87P-2" value="任务下发模块" style="rounded=0;whiteSpace=wrap;html=1;fontSize=13;" vertex="1" parent="1">
          <mxGeometry x="361.06594858080064" y="80.00463768115942" width="97.66355520358661" height="78.69565217391305" as="geometry" />
        </mxCell>
        <mxCell id="FoiQt1KAuYYiKZtzM87P-3" value="状态机模块" style="rounded=0;whiteSpace=wrap;html=1;fontSize=13;" vertex="1" parent="1">
          <mxGeometry x="238.98650457631737" y="369.99942028985504" width="219.74299920806993" height="39.34782608695652" as="geometry" />
        </mxCell>
        <mxCell id="FoiQt1KAuYYiKZtzM87P-35" style="edgeStyle=orthogonalEdgeStyle;rounded=0;orthogonalLoop=1;jettySize=auto;html=1;exitX=0.5;exitY=0;exitDx=0;exitDy=0;entryX=0.5;entryY=1;entryDx=0;entryDy=0;fontSize=13;" edge="1" parent="1" source="FoiQt1KAuYYiKZtzM87P-4" target="FoiQt1KAuYYiKZtzM87P-34">
          <mxGeometry relative="1" as="geometry" />
        </mxCell>
        <mxCell id="FoiQt1KAuYYiKZtzM87P-4" value="配置模块" style="rounded=0;whiteSpace=wrap;html=1;fontSize=13;" vertex="1" parent="1">
          <mxGeometry x="238.98650457631737" y="80.00463768115942" width="97.66355520358661" height="78.69565217391305" as="geometry" />
        </mxCell>
        <mxCell id="FoiQt1KAuYYiKZtzM87P-31" style="edgeStyle=orthogonalEdgeStyle;rounded=0;orthogonalLoop=1;jettySize=auto;html=1;exitX=1;exitY=0.5;exitDx=0;exitDy=0;entryX=0;entryY=0.25;entryDx=0;entryDy=0;fontSize=13;" edge="1" parent="1" source="FoiQt1KAuYYiKZtzM87P-5" target="FoiQt1KAuYYiKZtzM87P-13">
          <mxGeometry relative="1" as="geometry" />
        </mxCell>
        <mxCell id="FoiQt1KAuYYiKZtzM87P-5" value="领奖模块" style="rounded=0;whiteSpace=wrap;html=1;fontSize=13;" vertex="1" parent="1">
          <mxGeometry x="361.06594858080064" y="190.0021739130435" width="97.66355520358661" height="78.69565217391305" as="geometry" />
        </mxCell>
        <mxCell id="FoiQt1KAuYYiKZtzM87P-6" value="规则模块" style="rounded=0;whiteSpace=wrap;html=1;fontSize=13;" vertex="1" parent="1">
          <mxGeometry x="238.98650457631737" y="190.0021739130435" width="97.66355520358661" height="78.69565217391305" as="geometry" />
        </mxCell>
        <mxCell id="FoiQt1KAuYYiKZtzM87P-7" value="任务策略模块" style="rounded=0;whiteSpace=wrap;html=1;fontSize=13;" vertex="1" parent="1">
          <mxGeometry x="238.36650457631737" y="299.9997101449276" width="219.74299920806993" height="39.34782608695652" as="geometry" />
        </mxCell>
        <mxCell id="FoiQt1KAuYYiKZtzM87P-17" value="任务中心" style="text;html=1;strokeColor=none;fillColor=none;align=center;verticalAlign=middle;whiteSpace=wrap;rounded=0;fontSize=13;" vertex="1" parent="1">
          <mxGeometry x="315.04" y="-10" width="66.4" height="26.23" as="geometry" />
        </mxCell>
        <mxCell id="FoiQt1KAuYYiKZtzM87P-59" style="edgeStyle=orthogonalEdgeStyle;rounded=0;orthogonalLoop=1;jettySize=auto;html=1;exitX=0.5;exitY=0;exitDx=0;exitDy=0;entryX=0.5;entryY=0;entryDx=0;entryDy=0;dashed=1;fontSize=13;" edge="1" parent="1" source="FoiQt1KAuYYiKZtzM87P-32" target="FoiQt1KAuYYiKZtzM87P-38">
          <mxGeometry relative="1" as="geometry">
            <Array as="points">
              <mxPoint x="410" y="-100" />
              <mxPoint x="51" y="-100" />
            </Array>
          </mxGeometry>
        </mxCell>
        <mxCell id="FoiQt1KAuYYiKZtzM87P-32" value="用户" style="text;html=1;strokeColor=none;fillColor=none;align=center;verticalAlign=middle;whiteSpace=wrap;rounded=0;fontSize=13;" vertex="1" parent="1">
          <mxGeometry x="389.9" y="-70" width="40" height="20" as="geometry" />
        </mxCell>
        <mxCell id="FoiQt1KAuYYiKZtzM87P-34" value="管理端" style="text;html=1;strokeColor=none;fillColor=none;align=center;verticalAlign=middle;whiteSpace=wrap;rounded=0;fontSize=13;" vertex="1" parent="1">
          <mxGeometry x="263.91" y="-70" width="47.82" height="20" as="geometry" />
        </mxCell>
        <mxCell id="FoiQt1KAuYYiKZtzM87P-38" value="" style="rounded=0;whiteSpace=wrap;html=1;" vertex="1" parent="1">
          <mxGeometry x="-28" y="-19.25" width="158" height="300" as="geometry" />
        </mxCell>
        <mxCell id="FoiQt1KAuYYiKZtzM87P-39" value="礼包服务" style="rounded=0;whiteSpace=wrap;html=1;" vertex="1" parent="1">
          <mxGeometry x="-10" y="28.25" width="120" height="23.75" as="geometry" />
        </mxCell>
        <mxCell id="FoiQt1KAuYYiKZtzM87P-40" value="指挥官" style="rounded=0;whiteSpace=wrap;html=1;" vertex="1" parent="1">
          <mxGeometry x="-10" y="63.875" width="120" height="23.75" as="geometry" />
        </mxCell>
        <mxCell id="FoiQt1KAuYYiKZtzM87P-41" value="帖子服务" style="rounded=0;whiteSpace=wrap;html=1;" vertex="1" parent="1">
          <mxGeometry x="-10" y="99.5" width="120" height="23.75" as="geometry" />
        </mxCell>
        <mxCell id="FoiQt1KAuYYiKZtzM87P-42" value="上游活动服务" style="text;html=1;strokeColor=none;fillColor=none;align=center;verticalAlign=middle;whiteSpace=wrap;rounded=0;" vertex="1" parent="1">
          <mxGeometry x="8.5" y="-3.416666666666657" width="83" height="15.833333333333334" as="geometry" />
        </mxCell>
        <mxCell id="FoiQt1KAuYYiKZtzM87P-43" value="优惠券服务" style="rounded=0;whiteSpace=wrap;html=1;" vertex="1" parent="1">
          <mxGeometry x="-9" y="136.70833333333334" width="120" height="23.75" as="geometry" />
        </mxCell>
        <mxCell id="FoiQt1KAuYYiKZtzM87P-44" value="GPASS" style="rounded=0;whiteSpace=wrap;html=1;" vertex="1" parent="1">
          <mxGeometry x="-10" y="172.7483333333334" width="120" height="23.75" as="geometry" />
        </mxCell>
        <mxCell id="FoiQt1KAuYYiKZtzM87P-45" value="悦享卡" style="rounded=0;whiteSpace=wrap;html=1;" vertex="1" parent="1">
          <mxGeometry x="-10" y="210.7483333333334" width="120" height="23.75" as="geometry" />
        </mxCell>
        <mxCell id="FoiQt1KAuYYiKZtzM87P-53" value="..." style="rounded=0;whiteSpace=wrap;html=1;" vertex="1" parent="1">
          <mxGeometry x="-10" y="248.74666666666667" width="120" height="22" as="geometry" />
        </mxCell>
        <mxCell id="FoiQt1KAuYYiKZtzM87P-55" value="" style="endArrow=classic;html=1;fontSize=13;exitX=1;exitY=0.5;exitDx=0;exitDy=0;" edge="1" parent="1" source="FoiQt1KAuYYiKZtzM87P-38">
          <mxGeometry width="50" height="50" relative="1" as="geometry">
            <mxPoint x="70" y="500" as="sourcePoint" />
            <mxPoint x="200" y="131" as="targetPoint" />
          </mxGeometry>
        </mxCell>
        <mxCell id="FoiQt1KAuYYiKZtzM87P-56" value="rpc调用" style="text;html=1;strokeColor=none;fillColor=none;align=center;verticalAlign=middle;whiteSpace=wrap;rounded=0;fontSize=13;" vertex="1" parent="1">
          <mxGeometry x="140" y="138.7" width="50" height="20" as="geometry" />
        </mxCell>
        <mxCell id="FoiQt1KAuYYiKZtzM87P-68" style="edgeStyle=orthogonalEdgeStyle;rounded=0;orthogonalLoop=1;jettySize=auto;html=1;exitX=1;exitY=0.75;exitDx=0;exitDy=0;dashed=1;fontSize=13;" edge="1" parent="1" source="FoiQt1KAuYYiKZtzM87P-65">
          <mxGeometry relative="1" as="geometry">
            <mxPoint x="200" y="425" as="targetPoint" />
          </mxGeometry>
        </mxCell>
        <mxCell id="FoiQt1KAuYYiKZtzM87P-65" value="消息队列" style="rounded=0;whiteSpace=wrap;html=1;" vertex="1" parent="1">
          <mxGeometry x="-28" y="380" width="158" height="60" as="geometry" />
        </mxCell>
        <mxCell id="FoiQt1KAuYYiKZtzM87P-67" value="" style="endArrow=classic;html=1;dashed=1;fontSize=13;entryX=1;entryY=0.25;entryDx=0;entryDy=0;" edge="1" parent="1" target="FoiQt1KAuYYiKZtzM87P-65">
          <mxGeometry width="50" height="50" relative="1" as="geometry">
            <mxPoint x="200" y="395" as="sourcePoint" />
            <mxPoint x="150" y="310" as="targetPoint" />
          </mxGeometry>
        </mxCell>
        <mxCell id="FoiQt1KAuYYiKZtzM87P-69" style="edgeStyle=orthogonalEdgeStyle;rounded=0;orthogonalLoop=1;jettySize=auto;html=1;exitX=0;exitY=0.75;exitDx=0;exitDy=0;fontSize=13;" edge="1" parent="1" source="FoiQt1KAuYYiKZtzM87P-23" target="FoiQt1KAuYYiKZtzM87P-2">
          <mxGeometry relative="1" as="geometry" />
        </mxCell>
        <mxCell id="FoiQt1KAuYYiKZtzM87P-88" style="edgeStyle=orthogonalEdgeStyle;rounded=0;orthogonalLoop=1;jettySize=auto;html=1;exitX=0;exitY=0.5;exitDx=0;exitDy=0;fontSize=13;" edge="1" parent="1" source="FoiQt1KAuYYiKZtzM87P-87">
          <mxGeometry relative="1" as="geometry">
            <mxPoint x="495" y="420" as="targetPoint" />
          </mxGeometry>
        </mxCell>
        <mxCell id="FoiQt1KAuYYiKZtzM87P-87" value="限频服务" style="rounded=0;whiteSpace=wrap;html=1;" vertex="1" parent="1">
          <mxGeometry x="560" y="400" width="158" height="40" as="geometry" />
        </mxCell>
        <mxCell id="FoiQt1KAuYYiKZtzM87P-71" value="" style="rounded=0;whiteSpace=wrap;html=1;fontSize=13;" vertex="1" parent="1">
          <mxGeometry x="352.17" y="490" width="236.07" height="80" as="geometry" />
        </mxCell>
        <mxCell id="FoiQt1KAuYYiKZtzM87P-70" value="" style="rounded=0;whiteSpace=wrap;html=1;fontSize=13;" vertex="1" parent="1">
          <mxGeometry x="108.24" y="490" width="236.07" height="80" as="geometry" />
        </mxCell>
        <mxCell id="FoiQt1KAuYYiKZtzM87P-60" value="TDSQL" style="rounded=0;whiteSpace=wrap;html=1;fontSize=13;" vertex="1" parent="1">
          <mxGeometry x="127.0150819672131" y="504" width="94.42622950819671" height="28" as="geometry" />
        </mxCell>
        <mxCell id="FoiQt1KAuYYiKZtzM87P-61" value="Redis" style="rounded=0;whiteSpace=wrap;html=1;fontSize=13;" vertex="1" parent="1">
          <mxGeometry x="233.27606557377052" y="504" width="94.42622950819671" height="28" as="geometry" />
        </mxCell>
        <mxCell id="FoiQt1KAuYYiKZtzM87P-62" value="TDBank" style="rounded=0;whiteSpace=wrap;html=1;fontSize=13;" vertex="1" parent="1">
          <mxGeometry x="366.9127868852459" y="504" width="94.42622950819671" height="28" as="geometry" />
        </mxCell>
        <mxCell id="FoiQt1KAuYYiKZtzM87P-72" value="监控数据" style="rounded=0;whiteSpace=wrap;html=1;fontSize=13;" vertex="1" parent="1">
          <mxGeometry x="476.5022950819672" y="504" width="94.42622950819671" height="28" as="geometry" />
        </mxCell>
        <mxCell id="FoiQt1KAuYYiKZtzM87P-89" value="业务数据" style="text;html=1;strokeColor=none;fillColor=none;align=center;verticalAlign=middle;whiteSpace=wrap;rounded=0;fontSize=13;" vertex="1" parent="1">
          <mxGeometry x="188.49" y="542.5" width="75.57" height="14" as="geometry" />
        </mxCell>
        <mxCell id="FoiQt1KAuYYiKZtzM87P-90" value="监控分析数据" style="text;html=1;strokeColor=none;fillColor=none;align=center;verticalAlign=middle;whiteSpace=wrap;rounded=0;fontSize=13;" vertex="1" parent="1">
          <mxGeometry x="430.45000000000005" y="542.5" width="79.51" height="14" as="geometry" />
        </mxCell>
        <mxCell id="FoiQt1KAuYYiKZtzM87P-93" value="" style="endArrow=classic;html=1;fontSize=11;" edge="1" parent="1">
          <mxGeometry width="50" height="50" relative="1" as="geometry">
            <mxPoint x="310" y="450" as="sourcePoint" />
            <mxPoint x="310" y="480" as="targetPoint" />
          </mxGeometry>
        </mxCell>
        <mxCell id="FoiQt1KAuYYiKZtzM87P-94" value="" style="endArrow=classic;html=1;fontSize=11;" edge="1" parent="1">
          <mxGeometry width="50" height="50" relative="1" as="geometry">
            <mxPoint x="389.9" y="450" as="sourcePoint" />
            <mxPoint x="389.9" y="480" as="targetPoint" />
          </mxGeometry>
        </mxCell>
      </root>
    </mxGraphModel>
  </diagram>
</mxfile>
